<svg xmlns="http://www.w3.org/2000/svg" width="55" height="122" viewBox="0 0 55 122"><g><g><g/><g><path fill="#2f2e41" d="M17.344.792s-3.212-1.15-5.277 3.449c-2.065 4.598-5.277 9.657-5.277 9.657l1.835.46s.46-3.22 1.606-3.68l-.458 4.14s13.766 4.828 19.96-.46l-.23-1.61s.918.23.918 1.61l.689-.69s-.689-1.38-2.753-3.219C27 9.242 26.536 6.945 26.375 5.509a5.985 5.985 0 0 0-1.373-3.256C23.63.659 21.129-1.035 17.344.792z"/></g><g><path fill="#ffb9b9" d="M8.08 102.23l.985 5.677 3.941-.74.739-4.937z"/></g><g><path fill="#2f2e41" d="M13.737 105.43l-5.418.494.246 4.443-.246 5.677s-3.202 6.418 1.478 5.924c4.68-.493 4.187-2.962 4.187-2.962l1.231-1.48-.739-3.703z"/></g><g><path fill="#ffb9b9" d="M30.245 102.23l-.985 5.677-3.941-.74-.739-4.937z"/></g><g><path fill="#2f2e41" d="M24.578 105.43l5.418.494-.246 4.443.246 5.677s3.202 6.418-1.477 5.924c-4.68-.493-4.187-2.962-4.187-2.962l-1.232-1.48.739-3.703z"/></g><g><path fill="#ffb9b9" d="M18.915 16.075a5.671 5.671 0 0 0 5.665-5.678 5.671 5.671 0 0 0-5.665-5.677 5.671 5.671 0 0 0-5.665 5.677 5.671 5.671 0 0 0 5.665 5.678z"/></g><g><path fill="#ffb9b9" d="M15.22 13.36l.739 8.886L22.855 22s-1.97-5.677-.739-7.898z"/></g><g opacity=".5"><path fill="#2f2e41" d="M19.156 20.523l2.837-1.773 3.075 1.526 4.926 2.222-1.724 20.981s3.94 13.083 3.201 19.5c-.738 6.419 8.128 38.508.986 39.989-7.143 1.481-12.315 2.962-12.562.494-.246-2.469-.739-40.235-.739-40.235s-.738 39.988-3.694 40.481c-2.956.494-15.763 2.469-14.778-.493.985-2.962 7.635-54.799 10.837-57.76l.493-2.47-4.187-19.993 7.862-3.928z"/></g><g><path fill="#ffb9b9" d="M4.381 51.13l-.246 10.12s-2.371 9.992 1.647 9.933c4.018-.059 1.062-9.933 1.062-9.933l1.724-9.873z"/></g><g><path fill="#ffb9b9" d="M41.624 40.51l6.922 7.373s8.419 5.856 5.387 8.5c-3.032 2.642-7.405-6.688-7.405-6.688l-7.858-6.201z"/></g><g><path fill="#d0cde1" d="M11.65 44.837l16.87-.518-.22-1.148v-.005l-16.305-.296z"/></g><g><path fill="#2f2e41" d="M15.098 45.332a1.48 1.48 0 0 0 1.478-1.481 1.48 1.48 0 0 0-1.478-1.481 1.48 1.48 0 0 0-1.478 1.481 1.48 1.48 0 0 0 1.478 1.481z"/></g><g><path fill="#2f2e41" d="M9.804 23.24l-1.6-.37s-2.094.864-2.587 3.58c-.492 2.714-6.896 23.943-3.694 25.177 3.202 1.234 7.881 1.728 7.881 1.234 0-.493 1.97-19.007 1.97-19.007z"/></g><g><path fill="#2f2e41" d="M24.87 24.181l5.132-1.681s2.463 0 2.463 2.715c0 1.12 4.72 10.321 4.72 10.321s11.342 8.103 9.606 8.393c-2.956.493-4.68 5.677-4.68 5.677l-11.084-9.874z"/></g><g><path fill="#2f2e41" d="M12.01 10.828s1.835-2.53 3.44-2.99c1.607-.46 1.836-2.759 1.836-2.759s4.13 4.6 6.654 4.83c2.524.229.23-5.52.23-5.52L19.58 3.24l-4.359.46L11.78 6z"/></g><g><path fill="#ffb9b9" d="M13.369 10.652c.408 0 .739-.498.739-1.111 0-.614-.331-1.111-.74-1.111-.407 0-.738.497-.738 1.11 0 .614.33 1.112.739 1.112z"/></g></g></g></svg>