<svg xmlns="http://www.w3.org/2000/svg" width="113" height="122" viewBox="0 0 113 122"><g><g><g/><g opacity=".1"><g opacity=".01"><path d="M24.704 121.847c0 .052-.004.105-.013.156H-.336a1.044 1.044 0 0 1-.011-.182c.047-1.914 5.637-3.461 12.525-3.461 6.888 0 12.479 1.547 12.526 3.461a.14.14 0 0 1 .001.026z"/></g></g><g opacity=".1"><g opacity=".01"><path d="M57.277 110.264c6.918 0 12.527-1.561 12.527-3.487 0-1.926-5.609-3.487-12.527-3.487-6.918 0-12.527 1.561-12.527 3.487 0 1.926 5.609 3.487 12.527 3.487z"/></g></g><g opacity=".1"><g opacity=".01"><path d="M23.449 121.838a.897.897 0 0 1-.014.157H.915a.886.886 0 0 1-.013-.182c.047-1.723 5.076-3.113 11.272-3.113 6.197 0 11.226 1.39 11.273 3.113a.14.14 0 0 1 .002.025z"/></g></g><g opacity=".1"><g opacity=".01"><path d="M57.274 109.917c6.227 0 11.275-1.406 11.275-3.139 0-1.733-5.048-3.138-11.275-3.138-6.226 0-11.274 1.405-11.274 3.138 0 1.733 5.048 3.139 11.274 3.139z"/></g></g><g opacity=".1"><g opacity=".01"><path d="M104.404 119.88c4.514 0 8.174-1.018 8.174-2.275 0-1.256-3.66-2.275-8.174-2.275-4.514 0-8.174 1.019-8.174 2.275 0 1.257 3.66 2.275 8.174 2.275z"/></g></g><g opacity=".1"><g opacity=".01"><path d="M104.406 119.655c4.063 0 7.357-.916 7.357-2.047 0-1.131-3.294-2.048-7.357-2.048-4.062 0-7.356.917-7.356 2.048 0 1.13 3.294 2.047 7.356 2.047z"/></g></g><g><path fill="#f2f2f2" d="M10.606 51.077c.605 0 1.096-.492 1.096-1.099a1.097 1.097 0 1 0-1.096 1.099z"/></g><g><path fill="#f2f2f2" d="M104.876 94.067c.605 0 1.096-.492 1.096-1.099a1.097 1.097 0 1 0-1.096 1.099z"/></g><g><path fill="#f2f2f2" d="M53.196 58.767c.605 0 1.096-.492 1.096-1.099a1.097 1.097 0 1 0-1.096 1.099z"/></g><g><path fill="#f2f2f2" d="M3.716 95.686h-.285V95.4h-.056v.286H3.09v.056h.285v.286h.056v-.286h.285z"/></g><g><path fill="#f2f2f2" d="M95.326 72.466h-.285v-.286h-.056v.286H94.7v.056h.285v.286h.056v-.286h.285z"/></g><g><path fill="#f2f2f2" d="M118.966 67.756h-.285v-.286h-.056v.286h-.285v.056h.285v.286h.056v-.286h.285z"/></g><g><path fill="#f2f2f2" d="M68.076 80.316h-.285v-.286h-.056v.286h-.285v.056h.285v.286h.056v-.286h.285z"/></g><g><path fill="#f2f2f2" d="M112.076 81.876h-.285v-.286h-.056v.286h-.285v.056h.285v.286h.056v-.286h.285z"/></g><g><path fill="#f2f2f2" d="M58.996 88.626h-.285v-.286h-.056v.286h-.285v.056h.285v.286h.056v-.286h.285z"/></g><g><path fill="#f2f2f2" d="M79.036 88.946h-.285v-.286h-.056v.286h-.285v.056h.285v.286h.056v-.286h.285z"/></g><g><path fill="#f2f2f2" d="M4.036 62.266h-.285v-.286h-.056v.286H3.41v.056h.285v.286h.056v-.286h.285z"/></g><g><path fill="#f2f2f2" d="M64.316 59.756h-.285v-.286h-.056v.286h-.285v.056h.285v.286h.056v-.286h.285z"/></g><g><path fill="#f2f2f2" d="M89.996 50.966h-.285v-.286h-.056v.286h-.285v.056h.285v.286h.056v-.286h.285z"/></g><g><path fill="#f2f2f2" d="M87.176 53.636h-.285v-.286h-.056v.286h-.285v.056h.285v.286h.056v-.286h.285z"/></g><g><path fill="#f2f2f2" d="M76.066 46.995a.627.627 0 1 0 0-1.254.627.627 0 0 0 0 1.254z"/></g><g><path fill="#2f2e41" d="M72.201.958s-4.023-3.615-9.434 3.198c-5.411 6.813-13.875 10.15-15.817 12.79 0 0 8.047-3.336 10.822-4.726 2.775-1.39 2.636-1.112 2.636-1.112s-3.746 2.641-4.44 5.283c-.693 2.641-.138 4.866-1.387 7.508-1.249 2.641 23.864 1.807 23.864 1.807s2.497-4.31 1.804-8.76C79.555 12.499 79.97 1.515 72.2.959z"/></g><g><path fill="#ffb9b9" d="M64.586 12.33s.875 6.137-2.875 7.515c-3.75 1.378-2.375 3.256-2.375 3.256l5.625 2.756 5.999-1.879 2-3.006s-3.25-.751-2.375-3.006c.875-2.254 1.125-3.006 1.125-3.006z"/></g><g opacity=".1"><path d="M64.586 12.33s.875 6.137-2.875 7.515c-3.75 1.378-2.375 3.256-2.375 3.256l5.625 2.756 5.999-1.879 2-3.006s-3.25-.751-2.375-3.006c.875-2.254 1.125-3.006 1.125-3.006z"/></g><g><path fill="#ffb9b9" d="M80.335 29.87s-.875 11.523-.625 12.024c.25.5 0 17.91 0 17.91s1.75 9.394-.5 9.895c-2.25.501-1.75-10.52-1.75-10.52l-2.25-14.53.25-14.403z"/></g><g opacity=".1"><path d="M80.335 29.87s-.875 11.523-.625 12.024c.25.5 0 17.91 0 17.91s1.75 9.394-.5 9.895c-2.25.501-1.75-10.52-1.75-10.52l-2.25-14.53.25-14.403z"/></g><g><path fill="#ffb9b9" d="M55.962 64.56s-4.124 15.656-4 23.296c.126 7.64 1.75 18.287 1.75 18.287s.25 4.634-.124 5.135c-.375.5 1.874 2.63 1.874 2.63l2.375-1.378.875-1.002v-.877s-1.375-4.258-.25-7.64c1.125-3.381 1.75-11.898.625-14.529l7.75-23.045z"/></g><g><path fill="#2f2e41" d="M55.715 111.903s-1.5-1.878-2.5-1.252c-1 .626-2.624 4.885-2.624 4.885s-5.625 5.385-1.625 5.636c4 .25 5.75-1.127 6.25-2.13.5-1.001 5.124-3.632 5.124-3.632s-.5-4.76-1.25-4.884c-.75-.126-1.875 1.878-1.875 1.878z"/></g><g><path fill="#ffb9b9" d="M69.59 65.557v15.531c.014 1.885.14 3.767.375 5.636.375 2.756-2.125 23.297-2.125 23.297l.25 3.632 3.125-.25.375-3.132 4.5-13.777s1.5-8.392.75-11.523C76.09 81.84 80.713 61.8 80.713 61.8z"/></g><g><path fill="#2f2e41" d="M67.086 112.776l.926-.201s.699-1.552 1.574-1.176a9.432 9.432 0 0 1 1.74 1.044l.385.71s.874 1.878 2 3.13c1.124 1.253 2.374 4.008.5 4.259-1.875.25-4.375.376-5.125-.25-.75-.627-.25-1.629-1-1.88-.75-.25-1.375-1.001-1.25-1.252.125-.25.25-4.384.25-4.384z"/></g><g><path fill="#ffb9b9" d="M69.585 16.643a5.56 5.56 0 0 0 5.555-5.566 5.56 5.56 0 0 0-5.555-5.567 5.56 5.56 0 0 0-5.555 5.567 5.56 5.56 0 0 0 5.555 5.566z"/></g><g><path fill="#9239df" d="M59.09 20.848l1.651-.578s-.651 1.079 2.849 1.705c3.5.626 7.124.848 8.749-1.204 0 0 .625-.3 1.5.578.875.876 1.375.626 1.375.626l-.625 3.256-1.25 6.012-1.625 4.51-4.625-1.003-5-3.632-1.874-4.885v-4.509z"/></g><g><path fill="#9239df" d="M74.338 22.605l1.25-.877s4.25.751 4.5 2.755l-3.25 6.263a7.144 7.144 0 0 1-.125 5.385c-1.25 2.881-1.125 3.507-1.125 3.507l-.875 3.758-15.874 1.252s-.624-1.503-.874-1.753-.25-1.127 0-1.127 0-.376-.25-.752-.375-.5 0-1.002c.375-.5-.625-5.01-.625-5.01V30.12l-4.25-5.637s1.5-2.254 2.25-2.505c.75-.25 4.317-1.238 4.317-1.238l.807 1.191 1.125 9.065 1.625 5.511 6.842-1.165 2.657-4.47 1.75-5.261z"/></g><g><path fill="#9239df" d="M79.088 23.73l1 .751s.875 7.014.625 7.515c-.25.501-4.625 1.002-4.75.752-.124-.25 3.125-9.018 3.125-9.018z"/></g><g><path fill="#2f2e41" d="M58.466 20.221l1.25 8.266s-1.125 12.275-.875 14.78l.25.751s-.5-.25-.625.25c-.125.502 0 2.13 0 2.13s-.75.751-1 4.885c-.25 4.133-3.25 14.028-2.125 14.403 1.125.376 7.875 2.255 11.5 1.88 3.624-.377 16.623-4.76 16.498-5.888-.125-1.127-6.375-17.033-6.375-17.033s-1.124-1.88-1.124-2.13 1.5-1.252 1.125-2.254c-.376-1.002-2.375-11.523-2.375-11.523l1.375-7.515-1.875-.501-1.375 7.264s-5.375 2.63-11 .25l-1.249-8.516z"/></g><g><path fill="#2f2e41" d="M64.48 7.085s9.25 6.388 11.749 3.507c2.5-2.88-4.375-5.386-4.375-5.386l-5.75-.626z"/></g><g><path fill="#ffb9b9" d="M51.963 31.37s.875 11.523.625 12.024c-.25.5 0 17.91 0 17.91s-1.75 9.394.5 9.895c2.25.501 1.75-10.52 1.75-10.52l2.25-14.53-.25-14.403z"/></g><g><path fill="#9239df" d="M53.84 24.1l-1 .376s-1.875 7.89-1.375 7.89 6.5.752 6.5.501c0-.25-1.126-6.387-1.126-6.387z"/></g></g></g></svg>