<svg xmlns="http://www.w3.org/2000/svg" width="116" height="116" viewBox="0 0 116 116"><g><g><g/><g><path fill="#f2f2f2" d="M105.65 61.33L36.067 40.294l-11.9 40.042 69.584 21.034z"/></g><g><path fill="#3f3d56" d="M93.799 101.875L0 72.767 22.201 0 116 29.108zM.519 72.5l92.999 28.86 21.963-71.985L22.482.515z"/></g><g><path fill="#2f2e41" d="M59.711 24.35H33.81v29.645h25.901z"/></g><g><path fill="#2f2e41" d="M74.207 112.315H36.48v-14.11a28.453 28.453 0 0 1 1.901-10.18c1.672-4.382 3.845-6.955 3.845-6.955 15.241 8.567 24.485.756 24.485.756l1.654 6.728.12.488 4.4 17.896.12.49z"/></g><g><path fill="#3f3d56" d="M68.479 89.048c-5.677 1.393-10.706 1.872-14.946 1.872-2.64.006-5.275-.19-7.885-.587a42.191 42.191 0 0 1-7.448-1.832c.057-.159.115-.315.175-.471 2.4.828 4.87 1.433 7.378 1.81 5.154.795 12.93 1.093 22.606-1.28z"/></g><g><path fill="#3f3d56" d="M73.005 107.431c-7.548 2.381-14.134 3.14-19.466 3.14-2.639.006-5.275-.19-7.885-.587-4.292-.668-7.423-1.759-9.174-2.487v-.547c1.676.716 4.847 1.855 9.28 2.54 5.933.917 15.342 1.172 27.125-2.55z"/></g><g><path fill="#ffb8b8" d="M74.076 48.696l-5.32 9.263v.002l-.177.31-12.242 11.087-14.991-10.33-6.496-8.316s1-3.276 4.497-3.78a37.699 37.699 0 0 0 2.416-.415 20.88 20.88 0 0 0 1.38-.34c1.371-.391 2.638-.923 4.45-1.764 3.247-1.512-1-6.3-1-6.3l8.744-5.543s3.883 12.725 10.691 12.611c.1 0 .2-.005.302-.012.375-.028.733-.04 1.072-.043 6.002-.04 6.674 3.57 6.674 3.57z"/></g><g><path fill="#3f3d56" d="M43.591 55.755L41.76 46.52c.485-.103.937-.214 1.38-.34z"/></g><g><path fill="#3f3d56" d="M67.406 45.13l-1.696 9.24.322-9.185c.1 0 .2-.005.303-.012.374-.028.732-.04 1.071-.043z"/></g><g><path fill="#ffb8b8" d="M47.094 39.12c5.244 0 9.494-4.287 9.494-9.575 0-5.288-4.25-9.575-9.494-9.575-5.243 0-9.494 4.287-9.494 9.575 0 5.288 4.25 9.575 9.494 9.575z"/></g><g><path fill="#ffb8b8" d="M36.348 49.2l-1.499 1.512s-2.248 20.41 0 30.237l10.494 27.213s2.748 9.575 8.744 7.559c5.997-2.016-4.997-13.103-4.997-13.103l-7.745-21.417V54.49z"/></g><g><path fill="#ffb8b8" d="M70.332 46.43l3.747 2.268s3.248 11.339.5 26.96l-4.247 29.734s-2.499 11.339-7.746 8.567c-5.246-2.772 3.498-12.095 3.498-12.095l2.249-23.181.5-24.19z"/></g><g><path fill="#3f3d56" d="M55.086 63.813l-11.743-9.827-2.498 6.047s-2.499 25.197-.5 24.693c1.999-.503 2.249-2.771 3.998-1.007 1.748 1.763 12.742 4.283 14.24 2.771 1.5-1.512 8.745-3.78 8.745-3.78s2.998-2.267 2-5.29c-1-3.024 0-3.528.249-4.788.25-1.26 0-14.615 0-14.615l-3.498-6.047z"/></g><g><path fill="#9239df" d="M55.401 47.064c2.218-.278 4.141-1.7 5.717-4.226l-.423-.268c-1.491 2.39-3.292 3.734-5.353 3.994-3.661.46-6.964-2.671-6.997-2.703l-.345.365c.131.126 3.044 2.889 6.58 2.889h.008v3.987a1.245 1.245 0 0 0-.8.408 1.265 1.265 0 0 0-.001 1.688 1.244 1.244 0 0 0 2.15-.59c.062-.305.01-.623-.148-.892a1.25 1.25 0 0 0-.702-.563v-4.06c.105-.008.21-.016.314-.03z"/></g><g><path fill="#2f2e41" d="M46.719 13.042s-9.607 1.211-11.758 7.056-5.915 8.914-5.915 8.914-5.93 4.157-2.965 11.576c0 0-9.223 6.251-3.129 11.804 0 0-.358 5.553 3.226 9.353 0 0 2.868 1.46 1.793 2.338-1.076.876 7.169.292 6.452-7.599-.717-7.89 4.123-13.45 4.123-13.45s-4.66-10.23-2.51-13.737c1.306-2.13 1.867-3.717 2.95-4.636a13.66 13.66 0 0 0 1.674-1.648c.668-.8 2.02-1.889 4.159-1.307a6.006 6.006 0 0 1 2.468 1.31 45.188 45.188 0 0 0 6.926 5.1 43.196 43.196 0 0 1 3.499 2.312c2.086 1.546.362 4.823-1.724 7.567-3.086 4.059-3.147 9.76.081 13.706.095.116.192.23.29.341 3.157 3.565-.909 6.673-1.145 7.072-.537.912-2.685 6.671 6.186 6.697 0 0 2.06-4.359 4.927-6.989 2.868-2.63.717-10.229.717-10.229s4.302-2.63-.359-9.06c0 0 2.465-7.826-1.478-11.625 0 0-6.3-16.912-18.488-14.866z"/></g><g><path fill="#ffb8b8" d="M57.46 31.69c.69 0 1.248-.846 1.248-1.89s-.559-1.89-1.249-1.89c-.69 0-1.249.846-1.249 1.89s.56 1.89 1.25 1.89z"/></g><g><path fill="#9239df" d="M57.59 37.746c-1.45 0-2.63-1.53-2.63-3.408 0-1.88 1.18-3.408 2.63-3.408a.133.133 0 0 1 0 .264c-1.306 0-2.368 1.41-2.368 3.144 0 1.733 1.062 3.143 2.367 3.143 1.306 0 2.368-1.41 2.368-3.143 0-1.546-.55-2.676-1.47-3.024a.132.132 0 0 1-.076-.17.132.132 0 0 1 .168-.078c1.027.389 1.64 1.612 1.64 3.272 0 1.879-1.18 3.408-2.63 3.408z"/></g><g><path fill="#ffb8b8" d="M58.648 30.41c-.078.415-.292.79-.608 1.067"/></g><g><path fill="#6c63ff" d="M49.32 102.523l-5.172 2.568.126.258 5.172-2.568z"/></g><g><path fill="#6c63ff" d="M46.82 104.948c.629 0 1.139-.514 1.139-1.149s-.51-1.149-1.14-1.149c-.629 0-1.139.514-1.139 1.15 0 .634.51 1.148 1.14 1.148z"/></g><g><path fill="#2f2e41" d="M93.693 101.834c-4.969-2.793-8.061-6.606-9.193-11.334-.84-3.51-.599-7.46.718-11.74a31.552 31.552 0 0 1 4.335-8.832c10.062-14.363 10.97-23.722 9.96-29.044-1.108-5.836-4.705-8.26-4.741-8.283l.155-.241c.037.024 3.73 2.504 4.863 8.458.654 3.433.347 7.346-.914 11.633-1.568 5.335-4.627 11.27-9.09 17.642a31.264 31.264 0 0 0-4.296 8.752c-2.16 7.02-2.465 16.663 8.341 22.738z"/></g><g><path fill="#2f2e41" d="M84.62 75.235c-3.917-2.202-3.808-5.692-3.026-8.231.346-1.12.865-2.178 1.539-3.135 3.524-5.032 3.843-8.3 3.49-10.157-.385-2.016-1.616-2.843-1.628-2.851l.155-.241c.055.036 1.346.903 1.752 3.038.53 2.78-.66 6.27-3.537 10.376a10.909 10.909 0 0 0-1.5 3.055c-.75 2.438-.856 5.787 2.894 7.895z"/></g><g><path fill="#2f2e41" d="M102.244 43.345l-.138-.25c3.75-2.11 3.643-5.458 2.893-7.896a10.909 10.909 0 0 0-1.5-3.055c-2.876-4.106-4.066-7.597-3.537-10.376.407-2.135 1.698-3.002 1.753-3.038l.155.24c-.012.009-1.25.847-1.63 2.863-.35 1.855-.028 5.121 3.492 10.146a11.2 11.2 0 0 1 1.539 3.135c.781 2.54.89 6.03-3.027 8.231z"/></g><g><path fill="#9239df" d="M110.6 29.051a4.273 4.273 0 0 1-2.698 1.862 4.243 4.243 0 0 1-3.214-.609 4.31 4.31 0 0 1-1.846-2.72 4.34 4.34 0 0 1 .601-3.242c1.29-1.993 7.782-4.142 7.782-4.142s.665 6.858-.624 8.851z"/></g><g><path fill="#9239df" d="M109.04 15.691a4.273 4.273 0 0 1-2.699 1.86 4.243 4.243 0 0 1-3.213-.607 4.31 4.31 0 0 1-1.846-2.721 4.34 4.34 0 0 1 .6-3.241c1.29-1.993 7.782-4.142 7.782-4.142s.666 6.858-.624 8.851z"/></g><g><path fill="#2f2e41" d="M102.153 64.643a4.392 4.392 0 0 1-2.76-.97 4.458 4.458 0 0 1-1.554-2.497 4.487 4.487 0 0 1 .334-2.929 4.434 4.434 0 0 1 2.074-2.077c2.15-1.033 8.601.48 8.875.545l.173.04-.077.162c-.123.255-3.022 6.26-5.173 7.294a4.358 4.358 0 0 1-1.892.432zm.359-8.545c-.875 0-1.642.09-2.143.332a4.154 4.154 0 0 0-2.115 2.368 4.198 4.198 0 0 0 .164 3.183 4.143 4.143 0 0 0 2.348 2.134c1.032.37 2.167.311 3.156-.163 1.871-.9 4.474-6.016 4.96-6.998-.778-.174-3.978-.856-6.37-.856z"/></g><g><path fill="#9239df" d="M93.443 25.102a4.34 4.34 0 0 1 .278 6.088 4.244 4.244 0 0 1-6.037.28c-1.743-1.603-2.804-8.41-2.804-8.41s6.819.438 8.563 2.042z"/></g><g><path fill="#9239df" d="M83.473 43.202a4.332 4.332 0 0 1 .278 6.088 4.258 4.258 0 0 1-2.96 1.401 4.252 4.252 0 0 1-3.077-1.12c-1.743-1.604-2.804-8.411-2.804-8.411s6.819.438 8.563 2.042z"/></g><g><path fill="#2f2e41" d="M94.648 45.743c-1.427 0-4.154-1.362-4.279-1.425l-.159-.08.112-.139c.096-.119 2.36-2.916 3.633-3.194a2.42 2.42 0 0 1 1.835.337c.543.353.925.91 1.062 1.546a2.476 2.476 0 0 1-.333 1.851c-.35.548-.901.934-1.533 1.072a1.604 1.604 0 0 1-.338.032zm-3.99-1.602c.672.323 3.245 1.513 4.268 1.29a2.153 2.153 0 0 0 1.353-.948 2.187 2.187 0 0 0-.644-2.999 2.138 2.138 0 0 0-1.62-.298c-1.024.224-2.878 2.38-3.357 2.955z"/></g></g></g></svg>