<svg xmlns="http://www.w3.org/2000/svg" width="153" height="168" viewBox="0 0 153 168"><defs><linearGradient id="2ia7a" x1="19.89" x2="19.89" y1="168" y2="59.34" gradientUnits="userSpaceOnUse"><stop offset="0" stop-color="gray" stop-opacity=".25"/><stop offset=".54" stop-color="gray" stop-opacity=".12"/><stop offset="1" stop-color="gray" stop-opacity=".1"/></linearGradient></defs><g><g><g/><g><path fill="#ededf4" d="M153.004 21.49H9.45v93.553h143.554z"/></g><g><path fill="#3b477b" d="M34.037 100.088c6.709 0 12.147-.861 12.147-1.924s-5.438-1.924-12.147-1.924c-6.709 0-12.147.861-12.147 1.924s5.438 1.924 12.147 1.924z"/></g><g><path fill="#3b477b" d="M35.961 27.71H32.11v70.46h3.851z"/></g><g><path fill="#3b477b" d="M34.04 34.521c2.7 0 4.889-2.187 4.889-4.886a4.887 4.887 0 0 0-4.89-4.885c-2.7 0-4.889 2.187-4.889 4.885a4.887 4.887 0 0 0 4.89 4.886z"/></g><g><path fill="#6c63ff" d="M44.851 34.07s-1.925 4.146-3.406 12.726L33 37.476s2.269-.915 4.678-1.941a18.295 18.295 0 0 1 7.173-1.465z"/></g><g opacity=".8"><path fill="#8c8b97" d="M44.851 34.07s-1.925 4.146-3.406 12.726L33 37.476s2.269-.915 4.678-1.941a18.295 18.295 0 0 1 7.173-1.465z"/></g><g><path fill="#8c8b97" d="M23.522 34.07s2.666 7.845 2.806 10.953v3.701h15.556v-3.848a44.115 44.115 0 0 0-6.398-6.55 18.913 18.913 0 0 0-11.966-4.254z"/></g><g><path fill="#8c8b97" d="M26.338 48.73s-4 4.744-4.296 10.352c-.296 5.608 2.519 22.353 2.519 22.353s9.481 3.403 18.962 0c0 0 2.964-17.172 2.666-22.648-.298-5.477-5.999-12.657-5.999-12.657z"/></g><g opacity=".08"><path d="M36.04 44.507s1.926-.15 3.11.444c1.186.593 2.742.647 2.742.647"/></g><g opacity=".08"><path d="M36.04 45.387s1.926-.15 3.11.444c1.186.593 2.742.647 2.742.647"/></g><g opacity=".08"><path d="M36.04 46.577s1.926-.15 3.11.444c1.186.593 2.742.647 2.742.647"/></g><g opacity=".08"><path d="M27.151 48.8s-1.185 3.108-1.036 3.552c.15.445-1.185 3.109-1.185 3.109"/></g><g opacity=".08"><path d="M28.041 50.73s-1.185 3.108-1.036 3.552c.15.445-1.185 3.109-1.185 3.109"/></g><g opacity=".08"><path d="M41.37 48.8s1.185 3.108 1.036 3.552c-.149.445 1.185 3.109 1.185 3.109"/></g><g opacity=".08"><path d="M40.48 50.73s1.185 3.108 1.036 3.552c-.149.445 1.185 3.109 1.185 3.109"/></g><g><path fill="#3b477b" d="M80.407 109.418c6.709 0 12.147-.861 12.147-1.924s-5.438-1.924-12.147-1.924c-6.709 0-12.147.861-12.147 1.924s5.438 1.924 12.147 1.924z"/></g><g><path fill="#3b477b" d="M82.331 37.03H78.48v70.46h3.851z"/></g><g><path fill="#3b477b" d="M80.41 43.841c2.7 0 4.889-2.187 4.889-4.886a4.887 4.887 0 0 0-4.89-4.885c-2.7 0-4.889 2.187-4.889 4.885a4.887 4.887 0 0 0 4.89 4.886z"/></g><g><path fill="#8c8b97" d="M72.93 61.535L55.3 85.958l4.89 1.926s-.89.888-.296 1.333c0 0 2.074 1.924 7.555 2.22 0 0 1.63-2.22 4.89.74 3.26 2.958 7.26.592 7.26.592s2.961-2.513 6.367-.14c3.407 2.373 7.705-1.184 7.705-1.184s2.221-3.257 6.962-2.073c4.74 1.184 4.749-3.257 4.749-3.257L87.465 60.95z"/></g><g opacity=".08"><g opacity=".01"><path fill="#fff" d="M100.97 89.436c1.295.26 2.202.086 2.847-.296"/></g><g opacity=".01"><path fill="#fff" d="M64.336 89.21c-.591-.444.294-1.33.294-1.33l-4.89-1.925L72.926 61.53 55.3 85.953l4.89 1.926s-.89.889-.296 1.333c0 0 2.074 1.924 7.555 2.22.185-.225.414-.409.674-.54-2.692-.67-3.787-1.682-3.787-1.682z"/></g><g opacity=".01"><path fill="#fff" d="M76.78 92.17c-3.26-2.962-4.89-.74-4.89-.74-.184 0-.365-.022-.54-.035.347.234.676.494.984.777 2.196 1.995 4.726 1.57 6.144 1.078a5.726 5.726 0 0 1-1.699-1.08z"/></g><g opacity=".01"><path fill="#fff" d="M90.412 92.629c-2.159-1.51-4.14-1.04-5.302-.5.3.143.59.31.863.5 1.663 1.154 3.534.901 5.017.338a4.604 4.604 0 0 1-.578-.338z"/></g></g><g><path fill="#8c8b97" d="M88.923 63.529H72.33s-1.036-12.582-2.519-14.506a16.876 16.876 0 0 1 1.867-.681 27.94 27.94 0 0 1 3.022-.757 29.559 29.559 0 0 1 10.664-.097c1.03.18 2.05.418 3.053.711.797.232 1.606.507 2.426.824 0 0-2.957 11.842-1.919 14.506z"/></g><g opacity=".08"><path fill="#fff" d="M76.749 63.526h-2.207c-.028-2.784-2.07-11.787-2.862-15.189a27.94 27.94 0 0 1 3.022-.757c.17 3.583 1.64 13.313 2.047 15.946z"/></g><g opacity=".08"><path fill="#fff" d="M88.431 48.192c-.766 3.285-2.867 12.51-2.895 15.33H83.33c.408-2.66 1.902-12.543 2.046-16.042 1.03.181 2.05.419 3.055.712z"/></g><g><path fill="#3b477b" d="M126.487 100.538c6.709 0 12.147-.861 12.147-1.924s-5.438-1.924-12.147-1.924c-6.709 0-12.147.861-12.147 1.924s5.438 1.924 12.147 1.924z"/></g><g><path fill="#3b477b" d="M128.401 28.15h-3.851v70.46h3.851z"/></g><g><path fill="#3b477b" d="M126.48 34.961c2.7 0 4.889-2.187 4.889-4.886a4.887 4.887 0 0 0-4.89-4.885c-2.7 0-4.889 2.187-4.889 4.885a4.887 4.887 0 0 0 4.89 4.886z"/></g><g><path fill="#8c8b97" d="M134.97 53.406c-.14-.477-.28-.925-.416-1.329v-5.5l1.779-7.55c-4.15-6.069-9.93 0-9.93 0-6.37-5.625-9.63 0-9.63 0 .444 1.036 1.48 7.55 1.48 7.55v6.255c-2.357 4.933-3.063 10.416-2.739 15.91l1.11 18.845s10.666 4.146 19.555 0l.89-15.802a54.161 54.161 0 0 0-2.099-18.38z"/></g><g opacity=".08"><g opacity=".01"><path d="M128.709 39.18s2.102-2.202 4.68-2.634c-2.35-.759-4.678.647-5.939 1.631.438.31.858.645 1.259 1.003z"/></g><g opacity=".01"><path d="M118.925 87.735l-1.11-18.845c-.323-5.494.383-10.98 2.74-15.91v-6.255s-1.036-6.514-1.481-7.55c0 0 1.192-2.055 3.542-2.437-3.82-1.063-5.763 2.291-5.763 2.291.444 1.035 1.48 7.55 1.48 7.55v6.254c-2.357 4.933-3.063 10.416-2.739 15.91l1.11 18.845a32.401 32.401 0 0 0 9.725 1.83 31.974 31.974 0 0 1-7.504-1.683z"/></g></g><g opacity=".08"><g opacity=".01"><path d="M124.262 39.03a9.986 9.986 0 0 1 1.064-.928c-2.158-1.549-3.915-1.765-5.256-1.445 1.202.263 2.6.966 4.192 2.372z"/></g><g opacity=".01"><path d="M135.045 53.406c-.14-.477-.28-.926-.417-1.329v-5.5l1.779-7.55c-1.749-2.558-3.786-2.959-5.559-2.568 1.136.278 2.289 1.035 3.335 2.569l-1.778 7.549v5.496c.136.403.274.852.416 1.328a54.162 54.162 0 0 1 2.103 18.373l-.89 15.802c-2.59 1.21-5.338 1.713-7.924 1.818 3.19.128 6.796-.256 10.146-1.818l.902-15.797c.354-6.2-.36-12.415-2.113-18.373z"/></g></g><g><path fill="#ededf4" d="M28.122 115.18H15.17v6.902h12.952z"/></g><g><path fill="#ededf4" d="M41.182 122.41H28.23v6.902h12.952z"/></g><g><path fill="#ededf4" d="M54.242 115.18H41.29v6.902h12.952z"/></g><g><path fill="#ededf4" d="M54.352 129.52H41.4v6.902h12.952z"/></g><g><path fill="#ededf4" d="M67.302 122.41H54.35v6.902h12.952z"/></g><g><path fill="#ededf4" d="M80.362 115.18H67.41v6.902h12.952z"/></g><g><path fill="#ededf4" d="M93.422 122.41H80.47v6.902h12.952z"/></g><g><path fill="#ededf4" d="M106.482 115.18H93.53v6.902h12.952z"/></g><g><path fill="#ededf4" d="M106.592 129.52H93.64v6.902h12.952z"/></g><g><path fill="#ededf4" d="M119.542 122.41H106.59v6.902h12.952z"/></g><g><path fill="#ededf4" d="M153.002 115.29H140.05v6.902h12.952z"/></g><g><path fill="#ededf4" d="M139.832 122.62H126.88v6.902h12.952z"/></g><g><path fill="#ededf4" d="M37.722 14.56H24.77v6.902h12.952z"/></g><g><path fill="#ededf4" d="M50.682 7.23H37.73v6.902h12.952z"/></g><g><path fill="#ededf4" d="M63.742 0H50.79v6.902h12.952z"/></g><g><path fill="#ededf4" d="M63.842 14.34H50.89v6.902h12.952z"/></g><g><path fill="#ededf4" d="M76.802 7.23H63.85v6.902h12.952z"/></g><g><path fill="#ededf4" d="M89.962 14.56H77.01v6.902h12.952z"/></g><g><path fill="#ededf4" d="M102.922 7.23H89.97v6.902h12.952z"/></g><g><path fill="#ededf4" d="M115.982 0H103.03v6.902h12.952z"/></g><g><path fill="#ededf4" d="M116.082 14.34H103.13v6.902h12.952z"/></g><g><path fill="#ededf4" d="M129.042 7.23H116.09v6.902h12.952z"/></g><g opacity=".3"><path fill="#fff" d="M47.767 21.49L9.45 57.386v7.159L57.265 21.49z"/></g><g opacity=".3"><path fill="#fff" d="M9.45 74.654v14.451l84.19-67.61-12.413-.245z"/></g><g><path fill="url(#2ia7a)" d="M39.703 166.612l.017-.033.02-.041.012-.034a.529.529 0 0 0 .013-.054v-.05-.041-.041-.036-.035c.04-.311-.181-.662-.453-.968a2.1 2.1 0 0 0-1.464-.71c-3.108-.147-6.599-5.468-6.599-5.468l-.14.114a13.96 13.96 0 0 1-.933-2.236h.346v-.156l-.48-4.96 1.296-14.855c.4-.89.7-1.823.895-2.779.073-.354.107-.716.1-1.078v-.078c-.001-.802-.195-1.592-.566-2.303l-5.433-10.46a3.9 3.9 0 0 0 .302.022c1.602-2.284.576-5.681-.566-8.13l.402-.215a.78.78 0 0 1-.156-.082l.156-.075c-.933-.34-1.697-3.02-2.053-4.53l.52-1.898c.867.13 1.71.385 2.504.757l-.194-.41.184.09s-.072-.142-.19-.398c-.66-1.435-2.83-6.471-2.884-10.895.003-.59.055-1.177.155-1.758.1-.554.145-1.116.136-1.678a6.707 6.707 0 0 0-3.54-6.184s-2.107-1.726-2.59-3.775c-.16-.673-.648-1.225-1.244-1.665.216-1.611 1.032-3.106 1.858-4.255.093-.018.184-.035.275-.057.106-.143.21-.276.313-.396a5.691 5.691 0 0 0 4.147-5.419 5.604 5.604 0 0 0-2.492-4.637c.145-.017.307-.127.501-.431a1.616 1.616 0 0 0 .08-1.433 2.604 2.604 0 0 0-.658-.878 6.691 6.691 0 0 0-1.444-1.037c-1.216-.712-2.479-1.44-3.886-1.607a10.425 10.425 0 0 0-2.148.043l-3.26.291c-1.55.138-3.28.367-4.241 1.558-.961 1.19-.816 2.93-1.781 4.098-.713.863-1.883 1.22-2.761 1.92-1.61 1.28-2.036 3.56-1.663 5.547.374 1.987 1.406 3.79 2.282 5.623.877 1.834 1.628 3.825 1.377 5.824-.215 1.726-1.155 3.305-1.49 5.017a7.382 7.382 0 0 0 .262 3.803c.067.25.195.48.371.67a.943.943 0 0 0 .085.068.96.96 0 0 0 .077.09c.32.302.808.34 1.254.354 1.08.037 2.19.045 3.178.464.332.14.638.335.907.576a2.156 2.156 0 0 1 .66 1.673c-.09.95-.908 1.942-.395 2.746h.084c.023.05.049.1.078.147a6.108 6.108 0 0 0 1.64.04c.124.904.196 1.814.217 2.725 0 .986-.134 1.82-.445 2.312h.161a1.898 1.898 0 0 1-.161.328l.637-.047a44.324 44.324 0 0 1-2.666 3.938 8.408 8.408 0 0 0-1.885 5.255c-.005.28.005.563.03.843.145 1.536.698 3.175 2.103 4.48 0 0 .596 1.443.622 2.672 0 .269-.046.535-.136.788v11.162l-1.943 7.39a26.659 26.659 0 0 0-.37 4.47c0 2.158.268 4.677 1.341 6.536l1.622 7.705.161.017v2.157c-.198-.172-.323-.293-.323-.293l-.482 4.717h.015l-.015.153s2.757.63 10.537.785h1.647l.328-.015h.097l.216-.013h.106l.2-.015h.093l.24-.024h.035l.256-.03h.072l.17-.026.08-.013.153-.026.072-.012.177-.037h.028l.192-.045.047-.013.132-.035.056-.017.114-.035.05-.015.127-.045h.022l.136-.056.028-.013.095-.045.035-.018.077-.043.03-.017.085-.052h.01l.087-.064h.01l.061-.054.017-.018.048-.049.013-.015.045-.059a.594.594 0 0 0 .069-.131v-.013a.553.553 0 0 0 .015-.056v-.013a.51.51 0 0 0 0-.063.53.53 0 0 0 0-.118c.085-.568-.777-1.115-1.532-1.115-1.621 0-6.97-4.56-7.295-4.875-.136-.132-.382-.091-.686.058a10.049 10.049 0 0 1-.773-.785.69.69 0 0 0 .162-.375l-.021-.054a.686.686 0 0 0 .021-.104s-1.1-2.672-1.146-3.951c.001-.046.005-.091.01-.136l.132-11.285a7.35 7.35 0 0 1 1.35-4.098c.669-.965 1.357-2.457 1.437-4.58l2.247-8.181c3.012 2.782 5.397 6.47 5.67 6.88-.176.76-1.16 5.208-1.138 9.55v.077c-.013 1.321.106 2.64.354 3.939.545 2.592.835 5.232.863 7.881 0 .893-.043 1.396-.043 1.396v.155h.324v2.028l-.082-.063-2.027 3.537.043.041-.043.115s3.404 3.451 11.834 4.402l.47.05.134.012.326.029h.125l.408.03.371.019h1.442l.242-.019h.037l.199-.024h.066l.14-.024.061-.011.173-.038h.026l.13-.039.05-.017.09-.035.045-.017.11-.054.024-.015.073-.045.035-.024.05-.039.027-.026a.688.688 0 0 0 .054-.058l.022-.028z"/></g><g><path fill="#f7c4a7" d="M24.188 109.166s4.823 7.15 2.178 11.038c0 0-3.886 0-2.955-4.198a14.904 14.904 0 0 0-.311-7.616z"/></g><g><path fill="#f7c4a7" d="M10.18 158.283v5.595l4.978.466 1.867-2.804-.466-.776s-2.178-1.704-2.644-3.26c-.467-1.555-3.735.78-3.735.78z"/></g><g opacity=".1"><path d="M12.361 163.108s3.376-3.777 4.045-3.109c.311.31 5.445 4.819 7.001 4.819s3.58 2.487-3.886 2.332c-7.464-.156-10.111-.777-10.111-.777l.466-4.663s1.708 1.708 2.485 1.398z"/></g><g><path fill="#f3b5b7" d="M12.361 163.258s3.376-3.777 4.045-3.109c.311.31 5.445 4.819 7.001 4.819s3.58 2.487-3.886 2.332c-7.464-.156-10.111-.777-10.111-.777l.462-4.659s1.712 1.704 2.489 1.394z"/></g><g><path fill="#f7c4a7" d="M24.81 155.486v4.352l2.644 2.177 2.956-.777.777-1.71s-1.557-2.176-2.023-5.908z"/></g><g opacity=".1"><path d="M26.989 160.143h1.867l1.943-1.633s3.35 5.261 6.331 5.405a2.002 2.002 0 0 1 1.403.704c.78.901 1.138 2.223-4.39 1.587-8.087-.923-11.353-4.337-11.353-4.337l1.943-3.499z"/></g><g><path fill="#f3b5b7" d="M26.983 160.308h1.867l1.943-1.633s3.35 5.261 6.332 5.406a2.002 2.002 0 0 1 1.403.703c.779.901 1.137 2.224-4.391 1.587-8.09-.932-11.357-4.352-11.357-4.352l1.943-3.499z"/></g><g opacity=".1"><path d="M24.028 106.516s.933 4.974 2.178 5.44c0 0-2.644 1.245-2.178 2.487L21.85 104.34l2.644.31z"/></g><g><path fill="#fc6681" d="M24.028 106.366s.933 4.974 2.178 5.44c0 0-2.644 1.245-2.178 2.487L21.85 104.19l2.644.302z"/></g><g opacity=".9"><path fill="#9239df" d="M24.028 106.366s.933 4.974 2.178 5.44c0 0-2.644 1.245-2.178 2.487L21.85 104.19l2.644.302z"/></g><g opacity=".1"><path d="M22.013 112.27l9.282 18.4a5.042 5.042 0 0 1 .447 3.258 13.448 13.448 0 0 1-.864 2.748l-1.245 14.766.46 4.974h-5.591s.31-3.882-.778-9.327c-1.088-5.444.778-13.373.778-13.373s-3.422-5.595-7.312-8.394c-3.89-2.8 4.823-13.052 4.823-13.052z"/></g><g><path fill="#575988" d="M22.013 112.12l9.282 18.4a5.042 5.042 0 0 1 .447 3.258 13.448 13.448 0 0 1-.864 2.748l-1.24 14.775.455 4.96h-5.591s.31-3.882-.778-9.326c-1.088-5.444.778-13.373.778-13.373s-3.422-5.595-7.312-8.395 4.823-13.047 4.823-13.047z"/></g><g opacity=".05"><path d="M22.013 112.2l9.282 18.4a5.042 5.042 0 0 1 .447 3.258 13.448 13.448 0 0 1-.864 2.748l-1.245 14.766.46 4.974h-5.591s.31-3.882-.778-9.327c-1.088-5.444.778-13.373.778-13.373s-3.422-5.595-7.312-8.394c-3.89-2.8 4.823-13.052 4.823-13.052z"/></g><g opacity=".1"><path d="M12.056 104.03s-1.926 3.41-3.348 5.246a8.384 8.384 0 0 0-1.781 5.87c.138 1.51.67 3.14 2.018 4.43 0 0 .933 2.33.467 3.575v11.037l-1.868 7.306s-1.245 6.84.933 10.726l1.556 7.617s4.978.62 5.134-.932c0 0-1.246-3.108-1.08-4.198l.126-11.157a7.416 7.416 0 0 1 1.295-4.058c.647-.95 1.295-2.428 1.381-4.53l8.238-30.932z"/></g><g><path fill="#575988" d="M12.056 103.88s-1.926 3.41-3.348 5.246a8.384 8.384 0 0 0-1.781 5.87c.138 1.51.67 3.14 2.018 4.43 0 0 .933 2.33.467 3.575v11.042l-1.868 7.305s-1.245 6.84.933 10.727l1.556 7.616s4.978.621 5.134-.932c0 0-1.246-3.108-1.08-4.197l.126-11.158a7.416 7.416 0 0 1 1.295-4.057c.647-.952 1.295-2.43 1.381-4.53l8.238-30.937z"/></g><g><path fill="#f7c4a7" d="M23.255 115.23s1.08 6.996-2.806 9.172c0 0-1.557-1.079.621-4.663l.156-4.819z"/></g><g opacity=".1"><path d="M34.147 166.06c-7.353-.847-10.72-3.748-11.273-4.27l-.084.229s3.266 3.418 11.357 4.352c4.138.477 4.978-.144 4.812-.862-.156.567-1.29.957-4.812.552z"/></g><g opacity=".1"><path d="M19.511 166.828c-6.907-.144-9.694-.688-10.066-.767l-.045.457s2.644.621 10.111.776c4.648.097 5.613-.83 5.315-1.544-.257.6-1.634 1.163-5.315 1.078z"/></g><g opacity=".1"><path d="M10.11 119.656s3.735 0 4.823-.932c1.088-.932 3.734 0 3.734 0"/></g><g opacity=".1"><path d="M9.17 152.296c-2.177-3.883-.932-10.727-.932-10.727l1.867-7.305v-11.037c.467-1.245-.466-3.577-.466-3.577-1.349-1.294-1.88-2.91-2.018-4.428a8.384 8.384 0 0 1 1.78-5.871c1.423-1.836 3.349-5.246 3.349-5.246h12.404l.04-.155H12.127s-1.926 3.41-3.348 5.246a8.384 8.384 0 0 0-1.792 5.873c.138 1.51.67 3.138 2.018 4.428 0 0 .933 2.332.467 3.577v11.037l-1.868 7.305s-1.245 6.84.933 10.727l1.556 7.616s.236.03.603.058z"/></g><g><path fill="#f7c4a7" d="M21.072 73.408s-3.58 3.255-3.724 6.995c-.145 3.74-6.068-.776-6.068-.776s4.512-2.021 4.2-7.927z"/></g><g opacity=".1"><path d="M14.697 78.851s-4.822-1.866-5.757 6.063l1.08 10.416s1.867 7.927.621 9.948c0 0 12.758-1.079 16.49.932 0 0-3.734-7.765-2.806-13.214.928-5.448-3.266-7.46-3.266-7.46s-2.023-1.711-2.489-3.732c-.466-2.021-3.873-2.953-3.873-2.953z"/></g><g><path fill="#9239df" d="M14.694 78.543S9.87 76.669 8.93 84.604l.89 8.507a37.95 37.95 0 0 0 .511 3.378c.47 2.392 1.217 7.005.31 8.479 0 0 12.759-1.079 16.491.931 0 0-3.734-7.765-2.806-13.213.928-5.448-3.266-7.46-3.266-7.46s-2.023-1.711-2.49-3.732c-.466-2.021-3.876-2.951-3.876-2.951z"/></g><g opacity=".1"><path d="M13.76 88.8l5.6 20.674s2.178 4.974 1.245 6.374c0 0 2.49 1.245 3.58 0 1.09-1.244-2.334-15.545-2.334-15.545L19.828 88.8z"/></g><g><path fill="#9239df" d="M13.92 88.64l5.591 20.674s2.178 4.974 1.246 6.374c0 0 2.489 1.245 3.579 0 1.09-1.244-2.334-15.545-2.334-15.545L19.98 88.64z"/></g><g opacity=".1"><path d="M19.91 92.14s1.556 4.508 2.334 4.974c.777.466.31 3.882.31 3.882"/></g><g opacity=".1"><path d="M15.4 73.8c.848.518 1.656 1.942 2.722 1.942.444 0 .887-.053 1.32-.158a14.304 14.304 0 0 1 1.638-1.864l-5.6-1.71c.056 1.104.149.945-.08 1.79z"/></g><g><path fill="#f7c4a7" d="M18.12 75.43c3.092 0 5.6-2.505 5.6-5.595a5.597 5.597 0 0 0-5.6-5.595 5.597 5.597 0 0 0-5.6 5.595 5.597 5.597 0 0 0 5.6 5.595z"/></g><g opacity=".1"><g opacity=".01"><path d="M11.461 104.91c.864-1.534.121-6.057-.343-8.412a39.59 39.59 0 0 1-.511-3.378l-.89-8.507c.583-4.946 2.68-6.08 4.173-6.234-1.414-.14-4.257.339-4.95 6.234l.89 8.507a37.95 37.95 0 0 0 .511 3.378c.47 2.392 1.218 7.006.31 8.479.007-.007.297-.03.81-.067z"/></g><g opacity=".01"><path d="M18.28 104.67c3.454.018 7.124.286 8.866 1.226 0 0-.067-.14-.182-.395-2.106-.68-5.565-.845-8.684-.83z"/></g></g><g opacity=".1"><path d="M19.995 68.538c-.483 1.23-1.347 2.236-2.234 3.21-.495.547-1.004 1.101-1.295 1.776-.235.61-.38 1.25-.432 1.9-.346 2.665-.667 5.503.499 7.921.325.677.764 1.307.98 2.025.392 1.316 0 2.733-.523 4.008a23.62 23.62 0 0 1-2.759 5.004c-.647.895-1.377 1.788-1.608 2.867-.155.722-.097 1.54-.555 2.12-.61.774-1.785.714-2.763.58-.492-.802.292-1.777.378-2.713.097-1.03-.712-1.967-1.66-2.373-.948-.405-2.016-.431-3.05-.457-.432-.015-.896-.052-1.203-.35a1.588 1.588 0 0 1-.356-.664 7.509 7.509 0 0 1-.237-3.712c.321-1.693 1.224-3.248 1.429-4.96.24-1.985-.482-3.955-1.324-5.767-.842-1.811-1.832-3.593-2.19-5.558-.36-1.965.049-4.217 1.595-5.485.844-.692 1.964-1.048 2.648-1.898.926-1.15.801-2.884 1.71-4.047.909-1.162 2.59-1.402 4.07-1.54l3.127-.287a9.721 9.721 0 0 1 2.062-.043c1.351.166 2.564.885 3.73 1.59.74.447 1.524.943 1.863 1.739a1.637 1.637 0 0 1-.078 1.414c-.574.924-.846.033-1.295.242-.672.291-.169 2.53-.529 3.458z"/></g><g><path fill="#965d7b" d="M19.843 68.38c-.473 1.223-1.354 2.237-2.232 3.207-.495.548-1.004 1.102-1.295 1.777-.235.61-.38 1.25-.432 1.9-.346 2.665-.667 5.503.499 7.921.325.677.764 1.307.98 2.025.392 1.316 0 2.733-.523 4.008a23.617 23.617 0 0 1-2.759 5.004c-.647.895-1.377 1.788-1.608 2.867-.155.722-.097 1.54-.555 2.12-.61.774-1.785.714-2.763.58-.492-.802.292-1.777.378-2.713.097-1.03-.712-1.967-1.66-2.373-.948-.405-2.016-.431-3.05-.457-.432-.015-.896-.052-1.203-.35a1.587 1.587 0 0 1-.356-.664 7.509 7.509 0 0 1-.237-3.712c.321-1.693 1.224-3.248 1.429-4.961.24-1.984-.482-3.954-1.324-5.766C2.29 76.982 1.3 75.2.942 73.235c-.36-1.965.049-4.217 1.595-5.485.844-.692 1.964-1.048 2.648-1.898.926-1.15.801-2.884 1.71-4.047.909-1.162 2.59-1.402 4.07-1.54l3.127-.286a9.722 9.722 0 0 1 2.062-.044c1.351.166 2.564.885 3.73 1.59.74.447 1.524.943 1.863 1.739a1.637 1.637 0 0 1-.078 1.414c-.574.924-.846.033-1.295.242-.674.293-.17 2.526-.531 3.46z"/></g></g></g></svg>