<svg xmlns="http://www.w3.org/2000/svg" width="171" height="140" viewBox="0 0 171 140"><g><g><g/><g><path fill="#8c8b97" d="M149.362 111.444a28.44 28.44 0 0 0-4.329-15.08 28.512 28.512 0 0 0-11.672-10.506 28.578 28.578 0 0 0-30.056 3.109 30.88 30.88 0 0 0-13.415-9.024 30.93 30.93 0 0 0-16.145-1.016A30.897 30.897 0 0 0 59.302 86.2a30.812 30.812 0 0 0-8.777 13.563 23.041 23.041 0 0 0-9.755-5.13 23.07 23.07 0 0 0-11.026-.015 23.041 23.041 0 0 0-9.769 5.103 22.984 22.984 0 0 0-6.272 9.052 22.944 22.944 0 0 0 2.568 21.217 23.012 23.012 0 0 0 8.25 7.3 23.06 23.06 0 0 0 11.774 2.61c.365.015.732.025 1.101.025h86.436a25.059 25.059 0 0 0 16.821-6.484 24.966 24.966 0 0 0 8.091-16.084c.411-1.944.618-3.926.618-5.913z"/></g><g/><g><path fill="#a0616a" d="M135.328 102.82l-3.124 6.355s-5.646-.72-3.363 6.714c0 0-.6 5.636-1.802 6.835-1.201 1.199.961 9.112 5.286 6.834 2.432-1.281 2.584-2.752 2.252-3.794a9.385 9.385 0 0 1-.293-4.82c.434-2.029 1.216-4.623 2.605-6.853 2.763-4.437 5.406-8.753 5.406-8.753z"/></g><g><path fill="#3f3d56" d="M127.524 63.731s-6.847-1.678-9.13-.48c-2.282 1.2-9.01 1.32-9.01 1.32s-5.645 9.112-4.324 13.788c1.322 4.677 6.848 7.554 6.848 7.554l18.62.12 3.002-12.23s-1.441-8.393-2.643-8.873c-1.2-.48-3.363-1.199-3.363-1.199z"/></g><g><path fill="#2f2e41" d="M121.39 32.074c5.64 0 10.211-4.563 10.211-10.192 0-5.629-4.571-10.192-10.21-10.192-5.64 0-10.211 4.563-10.211 10.192 0 5.629 4.571 10.192 10.21 10.192z"/></g><g><path fill="#a0616a" d="M115.024 30.64s1.201 5.036-.6 5.635c-1.802.6-3.364 2.998-3.364 2.998l2.643 4.436 9.01 2.279 2.762-2.638 2.042-5.636-2.042-1.439s-1.922.6-2.042-1.318a31.915 31.915 0 0 1 .12-4.317z"/></g><g opacity=".1"><path d="M115.024 30.64s1.201 5.036-.6 5.635c-1.802.6-3.364 2.998-3.364 2.998l2.643 4.436 9.01 2.279 2.762-2.638 2.042-5.636-2.042-1.439s-1.922.6-2.042-1.318a31.915 31.915 0 0 1 .12-4.317z"/></g><g><path fill="#a0616a" d="M119.648 33.928c4.047 0 7.327-3.274 7.327-7.314s-3.28-7.314-7.327-7.314c-4.047 0-7.328 3.275-7.328 7.314 0 4.04 3.28 7.314 7.328 7.314z"/></g><g><path fill="#9239df" d="M119.229 43.344l-6.967-6.355s-3.124 2.638-3.484 2.638c-.36 0-5.045 1.439-5.165 2.038-.12.6 4.084 6.955 4.084 6.955s-.961 4.676 0 6.714c.96 2.038.24 10.791.24 10.791s6.367-2.278 9.73-1.199c3.364 1.08 13.214 0 13.214 0s1.442-9.232.841-10.431c-.6-1.2-.72-8.034-.72-8.034l5.165-5.635s-1.081-4.317-5.166-4.556c-4.084-.24-6.607-.48-6.607-.48z"/></g><g><path fill="#3f3d56" d="M111.068 72.839s-13.454-6.115-18.86-8.993c-5.405-2.877-13.694-.6-11.051 5.876 2.643 6.474 17.418 12.83 17.418 12.83s4.805 3.596 7.688 3.476c2.883-.12 7.028-.06 7.028-.06z"/></g><g><path fill="#3f3d56" d="M131.847 73.68s24.145.24 22.583 9.233c-1.561 8.992-10.811 23.98-12.493 24.34-1.682.36-7.808-2.278-7.808-3.118 0-.839 5.886-16.307 5.886-16.307L125.6 83.393z"/></g><g><path fill="#a0616a" d="M136.411 46.82s1.442 13.789.72 15.947c-.72 2.158-3.243 8.034-6.486 10.911-3.243 2.878-7.808 17.386-10.33 10.432-2.523-6.955 4.083-10.791 4.083-10.791l6.623-9.301.063-15.136z"/></g><g><path fill="#a0616a" d="M109.383 75.72s11.893 4.197 13.214 3.597c1.322-.6 4.205 1.559 4.205 1.559a10.375 10.375 0 0 1 7.808 1.439c3.844 2.518 4.685 5.395 3.844 5.515-.841.12-3.844-1.199-3.844-1.199s-4.565-.959-7.328-.12c-2.763.84-6.364-.93-6.364-.93l-14.658-3.266z"/></g><g opacity=".1"><path d="M109.383 75.72s11.893 4.197 13.214 3.597c1.322-.6 4.205 1.559 4.205 1.559a10.375 10.375 0 0 1 7.808 1.439c3.844 2.518 4.685 5.395 3.844 5.515-.841.12-3.844-1.199-3.844-1.199s-4.565-.959-7.328-.12c-2.763.84-6.364-.93-6.364-.93l-14.658-3.266z"/></g><g><path fill="#a0616a" d="M103.62 51.98s.12 14.868 1.922 16.666 3.724 4.197 5.526 5.276c1.802 1.079 2.763 3.597 2.763 3.597s8.649 12.59 8.769 6.834c.12-5.755-4.445-10.311-4.445-10.311l-.893-.85a40.528 40.528 0 0 1-5.276-6.044 6.308 6.308 0 0 0-1.279-1.38c-1.561-1.199-1.922-14.388-1.922-14.388z"/></g><g><path fill="#9239df" d="M133.645 39.39l2.522 1.439s.961 6.355 1.442 7.194c.48.84-5.886 2.998-6.847 2.398-.962-.6-1.442-6.475-1.442-6.475z"/></g><g><path fill="#9239df" d="M105.178 41.55h-1.562s-1.681 1.799-1.561 5.635c.12 3.837-1.442 6.235-.48 6.595.96.36 5.754-1.544 5.7-1.012-.055.532 2.468-.427 2.468-.427l-1.682-6.355z"/></g><g opacity=".1"><path d="M93.104 66.13s7.327 3.117 9.37 3.597c2.041.48 8.642 6.092 8.642 6.092l-4.506 6.829s-4.617-.57-7.14-1.05c-2.522-.48-17.538-10.432-15.016-12.11 2.523-1.68 8.65-3.358 8.65-3.358z"/></g><g><path fill="#3f3d56" d="M91.604 66.13s7.327 3.117 9.37 3.597c2.041.48 10.09 5.995 10.09 5.995l-3.964 7.674s-6.607-1.319-9.13-1.798c-2.522-.48-17.538-10.432-15.016-12.11 2.523-1.68 8.65-3.358 8.65-3.358z"/></g><g><path fill="#2f2e41" d="M123.38 25.183c5.64 0 10.211-4.563 10.211-10.191 0-5.629-4.571-10.192-10.21-10.192-5.64 0-10.211 4.563-10.211 10.192 0 5.628 4.571 10.191 10.21 10.191z"/></g><g><path fill="#2f2e41" d="M126.255 9.592a4.8 4.8 0 0 0 4.805-4.796A4.8 4.8 0 0 0 126.255 0a4.8 4.8 0 0 0-4.805 4.796 4.8 4.8 0 0 0 4.805 4.796z"/></g><g/></g></g></svg>