<svg xmlns="http://www.w3.org/2000/svg" width="172" height="92" viewBox="0 0 172 92"><g><g><g/><g><path fill="#3f3d56" d="M90.82 91.997c44.834 0 81.179-3.263 81.179-7.289 0-4.025-36.345-7.288-81.18-7.288-44.834 0-81.179 3.263-81.179 7.288 0 4.026 36.345 7.289 81.18 7.289z"/></g><g opacity=".1"><path d="M163.446 77.282c0 11.148-15.572 7.7-34.639 7.7-19.066 0-34.407 3.448-34.407-7.7 0-11.147 15.57-13.572 34.636-13.572 19.067 0 34.41 2.425 34.41 13.572z"/></g><g><path fill="#3f3d56" d="M163.446 75.202c0 11.148-15.572 7.7-34.639 7.7-19.066 0-34.407 3.448-34.407-7.7 0-11.147 15.57-13.572 34.636-13.572 19.067 0 34.41 2.425 34.41 13.572z"/></g><g><path fill="#ffc1c7" d="M98.347 40.28l-.705.818s-8.58.803-8.232 2.193c.349 1.39 10.33-1.853 10.33-1.853z"/></g><g><path fill="#6c63ff" d="M113.9 39.58s-9.17 3.243-14.16 1.853l2.321 4.633s11.839-.348 13.928-2.433c2.089-2.084-2.09-4.053-2.09-4.053z"/></g><g opacity=".9"><path fill="#9239df" d="M113.9 39.58s-9.17 3.243-14.16 1.853l2.321 4.633s11.839-.348 13.928-2.433c2.089-2.084-2.09-4.053-2.09-4.053z"/></g><g><path fill="#ffc1c7" d="M107.691 14.736c3.398 0 6.152-2.748 6.152-6.138 0-3.39-2.754-6.138-6.152-6.138-3.397 0-6.151 2.748-6.151 6.138 0 3.39 2.754 6.138 6.151 6.138z"/></g><g><path fill="#ffc1c7" d="M112.935 14.365c.212.403.48.775.797 1.102a10.06 10.06 0 0 0 2.965 2.214 101.24 101.24 0 0 1-10.565 1.568c.375-1.316-.118-2.723-.78-3.921-.663-1.198-1.507-2.314-1.922-3.618l4.158.112c.754.02 1.511.043 2.265.006.564-.028 1.503-.365 2.03-.24 1.112.262.566 1.792 1.052 2.777z"/></g><g><path fill="#2f2e41" d="M126.904 43.167l3.482 4.17s5.803 13.55-6.848 14.94c-12.651 1.39-22.052-1.043-22.052-1.043s-5.107-2.432-5.223-.579c-.116 1.853-.58 7.065-3.366 12.16l-2.437 5.56s-1.277 1.273-.929 3.01c.349 1.738-7.776 2.317-7.66 0 0 0 1.16-1.968 1.16-3.126 0-1.159 1.858-3.938 1.858-3.938l3.366-16.677s-.232-8.57 7.66-6.949c7.892 1.621 19.15-.347 19.15-.347l2.554-8.918z"/></g><g opacity=".1"><path d="M126.904 43.167l3.482 4.17s5.803 13.55-6.848 14.94c-12.651 1.39-22.052-1.043-22.052-1.043s-5.107-2.432-5.223-.579c-.116 1.853-.58 7.065-3.366 12.16l-2.437 5.56s-1.277 1.273-.929 3.01c.349 1.738-7.776 2.317-7.66 0 0 0 1.16-1.968 1.16-3.126 0-1.159 1.858-3.938 1.858-3.938l3.366-16.677s-.232-8.57 7.66-6.949c7.892 1.621 19.15-.347 19.15-.347l2.554-8.918z"/></g><g><path fill="#2f2e41" d="M113.845 42.866s10.62-3.98 16.539 4.474c0 0 1.509 13.087-4.527 13.666-6.035.58-13.927.464-15.784-1.505-1.857-1.97-13.58-7.528-13.58-7.528s-5.835-2.97-6.98.889c-1.144 3.86-1.26 4.786-1.26 4.786s-6.035 4.4-8.473 5.211c0 0-1.625 2.317-2.553 2.317-.929 0-6.616 1.273-6.036-3.012l9.402-8.57 9.4-9.149s2.67-3.938 9.518-1.853a141.84 141.84 0 0 0 13.811 3.359z"/></g><g><path fill="#cbceda" d="M89.18 81.161s2.205 5.56.348 6.254c-1.857.695-5.803.232-5.803.232s-4.642-.58-5.803-.464c-1.16.116-5.92-.81-5.223-2.663.697-1.853 4.295-1.39 4.295-1.39l3.25-1.506s.348-1.158 1.16-.695c.812.464 3.134 2.2 7.776.232z"/></g><g><path fill="#cbceda" d="M77.112 64.718s2.438 5.443-1.508 4.98c-3.947-.463-6.964-1.274-8.125-1.39-1.116-.111-4.273-1.187-3.789-3.33.026-.14.037-.28.032-.421 0-.288.391-.852 3.525-.766 0 0 2.321 0 3.25-1.621 0 0 3.482 4.4 6.615 2.548z"/></g><g><path fill="#9239df" d="M103.46 18.386s8.357-5.211 15.32 0c6.964 5.212 11.607 28.954 11.607 28.954l-16.133-3.59s-.697-2.78-1.625-3.243c-.929-.464-1.045-2.432-1.045-2.432s-4.99-1.506-4.642-7.297c.348-5.79-3.482-12.392-3.482-12.392z"/></g><g><path fill="#9239df" d="M107.746 18.62h-4.295s-2.553 2.895-2.901 10.192l-1.393 5.79s-2.902 6.949-1.16 8.107c1.74 1.158 5.106 1.042 5.802-1.274.697-2.316 5.455-15.75 5.455-15.75z"/></g><g><path fill="#2f2e41" d="M106.524.614a6.23 6.23 0 0 1 6.432 1.052c2.229 1.985 2.678 5.223 3.242 8.15.563 2.928 1.697 6.189 4.462 7.317a11.65 11.65 0 0 1-3.746-.108l4.179 3.736-7.04-2.29c-2.209-.718-4.529-1.445-6.817-1.04-3.79.673-6.428 4.228-10.068 5.477l.404-1.97-2.442-.018a4.776 4.776 0 0 0 1.4-1.636 1.353 1.353 0 0 0-.935-.488c-1.018-6.336 2.753-12.6 7.667-16.74.966-.814 2.036-1.596 3.284-1.8 1.249-.203 2.706.354 3.14 1.54"/></g><g><path fill="#3f3d56" d="M.02 58.68c0 13.33 8.381 24.117 18.738 24.117"/></g><g><path fill="#9239df" d="M18.76 82.799c0-13.48 9.353-24.389 20.91-24.389"/></g><g><path fill="#9239df" d="M6.81 59.89c0 12.663 5.344 22.91 11.949 22.91"/></g><g><path fill="#3f3d56" d="M18.76 82.803c0-17.225 10.81-31.163 24.17-31.163"/></g><g><path fill="#a8a8a8" d="M14.82 82.973s2.657-.082 3.458-.65c.801-.57 4.088-1.25 4.287-.337.198.913 3.993 4.54.993 4.563-3 .025-6.971-.466-7.77-.952-.8-.486-.968-2.624-.968-2.624z"/></g><g opacity=".2"><path d="M23.612 86.232c-3 .024-6.971-.466-7.77-.952-.61-.37-.852-1.697-.933-2.31l-.089.003s.168 2.139.968 2.625c.799.486 4.77.976 7.77.952.866-.007 1.165-.314 1.149-.77-.12.275-.45.447-1.095.452z"/></g></g></g></svg>