<svg xmlns="http://www.w3.org/2000/svg" width="180" height="109" viewBox="0 0 180 109"><g><g><g/><g><path fill="#3f3d56" d="M180.005 108.5H115.16v.328h64.845z"/></g><g><path fill="#3f3d56" d="M77.865 70.42V35.456h40.083V0H0v105.547h117.948V70.42z"/></g><g opacity=".1"><path d="M117.948 35.456V0H77.044v34.964h-36.14V0H0v35.456h36.961V70.42H0v35.127h78.194V70.42h-.329V35.456z"/></g><g><path fill="#9239df" d="M28.255 0c0 7.488-2.977 14.67-8.276 19.964A28.266 28.266 0 0 1 0 28.234V0z"/></g><g opacity=".1"><path d="M13.142 0c0 3.483-1.385 6.823-3.85 9.285A13.147 13.147 0 0 1 0 13.132v7.222a20.378 20.378 0 0 0 14.403-5.961A20.347 20.347 0 0 0 20.37 0z"/></g><g><path fill="#d0cde1" d="M117.949 9.849V4.76H90.844V0H84.93v18.877h33.019v-5.089H90.844v-3.94z"/></g><g><path fill="#d0cde1" d="M70.471 54.328a13.289 13.289 0 0 0-7.797-12.105 13.315 13.315 0 0 0-14.254 2.083 13.295 13.295 0 0 0-4.003 13.828 13.31 13.31 0 0 0 10.942 9.364v18.675h-21.81a13.294 13.294 0 0 0-4.783-8.506 13.312 13.312 0 0 0-18.124 1.235 13.29 13.29 0 0 0 0 18.153 13.31 13.31 0 0 0 22.907-7.27h21.81v7.878h3.613v-7.879h7.393v-3.611h-7.393V67.499a13.308 13.308 0 0 0 8.22-4.432 13.29 13.29 0 0 0 3.28-8.739z"/></g><g><path fill="#d0cde1" d="M102.92 73.09l5.916 10.238 5.915 10.237H91.09l5.915-10.237z"/></g><g><path fill="#9239df" d="M100.29 94.874H88.46l5.915-10.238.04-.071L92.24 80.8l-5.915 10.238-5.915 10.237h23.66l-3.698-6.401z"/></g><g><path fill="#d0cde1" d="M26.117 56.627v-8.864h4.435V42.51H8.54v21.996h22.013v-7.88z"/></g><g><path fill="#9239df" d="M22.834 38.41H14.62v8.207h8.214z"/></g><g><path fill="#ffb8b8" d="M153.933 39.368l-2.718 7.177-9.801 3.436s-5.914-.656-5.914 2.627c0 2.328 7.064.328 7.064.328l12.922-3.87 4.076-10.086z"/></g><g><path fill="#9239df" d="M142.75 37.43h-38.44v33.158h38.44z"/></g><g><path fill="#3f3d56" d="M122.79 47.48l5.915 10.238 5.916 10.237H110.96l5.915-10.237z"/></g><g><path fill="#d0cde1" d="M122.767 54.89l2.683 4.644 2.683 4.644H117.4l2.683-4.644z"/></g><g><path fill="#d0cde1" d="M122.767 39.79l2.683 4.644 2.683 4.644H117.4l2.683-4.644z"/></g><g><path fill="#2f2e41" d="M159.674 34.707s-2.718-.388-4.077 4.655c-1.359 5.044-1.747 5.432-1.747 5.432s7.96 1.164 8.153.776c.194-.388 1.747-9.7-2.33-10.863z"/></g><g><path fill="#ffb8b8" d="M158.121 32.765a5.24 5.24 0 0 0 5.242-5.238 5.24 5.24 0 0 0-5.242-5.237 5.24 5.24 0 0 0-5.241 5.237 5.24 5.24 0 0 0 5.241 5.238z"/></g><g><path fill="#ffb8b8" d="M155.79 31.8s1.747 4.46 1.165 5.043c-.583.581 7.182 1.357 7.182 1.357s.583-2.91-1.747-4.655c0 0-.97-2.91-.776-3.492.194-.582-5.824 1.746-5.824 1.746z"/></g><g><path fill="#2f2e41" d="M160.452 33.741a14 14 0 0 0-5.241 3.492c-2.33 2.521-3.495 3.297-3.495 3.297s-2.717.97-1.747 5.626c.486 2.327.146 4.946-.315 6.983a43.607 43.607 0 0 0-1.043 9.628v2.01s-17.86 37.438-11.842 39.96c6.018 2.521 11.453 3.297 11.842 2.715.388-.582 7.376-30.842 7.376-30.842s1.941 32.394 6.795 32.394c4.853 0 12.812-1.358 12.812-1.358l-9.9-38.795s2.329-6.595-3.495-11.25l-.776-2.135c3.22.002 4.692-20.365 1.359-22.113 0 0-.777-.582-2.33.388z"/></g><g><path fill="#ffb8b8" d="M155.603 44.208l-2.718 7.177-9.801 3.436s-5.914-.656-5.914 2.627c0 2.328 7.064.328 7.064.328l12.922-3.87 4.076-10.086z"/></g><g><path fill="#2f2e41" d="M142.687 109c1.876 0 3.397-.869 3.397-1.94 0-1.072-1.52-1.94-3.397-1.94-1.876 0-3.397.868-3.397 1.94 0 1.071 1.521 1.94 3.397 1.94z"/></g><g><path fill="#2f2e41" d="M168.707 109c1.876 0 3.397-.869 3.397-1.94 0-1.072-1.52-1.94-3.397-1.94-1.876 0-3.397.868-3.397 1.94 0 1.071 1.521 1.94 3.397 1.94z"/></g><g><path fill="#2f2e41" d="M160.149 20.183c-.27.001-.54.028-.804.08a3.524 3.524 0 0 0-1.534-.353h-.14c-2.684 0-4.861 2.428-4.861 5.423h.9l.145-1.105.213 1.105h.75c-.234.886-.35 1.8-.349 2.716v5.52h1.36l.788-2.045-.197 2.045h8.743l.716-1.86-.179 1.86h.985v-4.334c0-4.999-2.927-9.052-6.536-9.052z"/></g></g></g></svg>