<svg width="13" height="20" viewBox="0 0 13 20" fill="none" xmlns="http://www.w3.org/2000/svg">
<path d="M4.21484 0.716797H8.78516C9.66536 0.733724 10.4017 1.03841 10.9941 1.63086C11.5866 2.22331 11.8913 2.95964 11.9082 3.83984V8.41016C11.8913 9.29036 11.5866 10.0267 10.9941 10.6191C10.4017 11.2116 9.66536 11.5163 8.78516 11.5332H4.21484C3.33464 11.5163 2.59831 11.2116 2.00586 10.6191C1.41341 10.0267 1.10872 9.29036 1.0918 8.41016V3.83984C1.10872 2.95964 1.41341 2.22331 2.00586 1.63086C2.59831 1.03841 3.33464 0.733724 4.21484 0.716797ZM4.11328 1.7832C3.55469 1.80013 3.08919 1.99479 2.7168 2.36719C2.36133 2.72266 2.17513 3.17969 2.1582 3.73828V8.51172C2.17513 9.07031 2.36133 9.53581 2.7168 9.9082C3.08919 10.2637 3.55469 10.4499 4.11328 10.4668H8.88672C9.44531 10.4499 9.90234 10.2637 10.2578 9.9082C10.6302 9.53581 10.8249 9.07031 10.8418 8.51172V3.73828C10.8249 3.17969 10.6302 2.72266 10.2578 2.36719C9.90234 1.99479 9.44531 1.80013 8.88672 1.7832H4.11328ZM9.34375 2.5957C9.52995 2.61263 9.68229 2.6888 9.80078 2.82422C9.9362 2.94271 10.0039 3.09505 10.0039 3.28125C10.0039 3.46745 9.9362 3.62826 9.80078 3.76367C9.68229 3.88216 9.52995 3.94141 9.34375 3.94141C9.15755 3.94141 8.99674 3.88216 8.86133 3.76367C8.74284 3.62826 8.68359 3.46745 8.68359 3.28125C8.68359 3.09505 8.74284 2.94271 8.86133 2.82422C8.99674 2.6888 9.15755 2.61263 9.34375 2.5957ZM6.5 3.4082C7.26172 3.42513 7.89648 3.69596 8.4043 4.2207C8.92904 4.72852 9.19987 5.36328 9.2168 6.125C9.19987 6.88672 8.92904 7.52995 8.4043 8.05469C7.89648 8.5625 7.26172 8.82487 6.5 8.8418C5.73828 8.82487 5.09505 8.5625 4.57031 8.05469C4.0625 7.52995 3.80013 6.88672 3.7832 6.125C3.80013 5.36328 4.0625 4.72852 4.57031 4.2207C5.09505 3.69596 5.73828 3.42513 6.5 3.4082ZM6.5 4.5C6.04297 4.51693 5.66211 4.67773 5.35742 4.98242C5.05273 5.28711 4.90039 5.66797 4.90039 6.125C4.90039 6.58203 5.05273 6.96289 5.35742 7.26758C5.66211 7.57227 6.04297 7.72461 6.5 7.72461C6.95703 7.72461 7.33789 7.57227 7.64258 7.26758C7.94727 6.96289 8.09961 6.58203 8.09961 6.125C8.09961 5.66797 7.94727 5.28711 7.64258 4.98242C7.33789 4.67773 6.95703 4.51693 6.5 4.5Z" fill="#9239DF"/>
</svg>
