<svg xmlns="http://www.w3.org/2000/svg" width="196" height="50" viewBox="0 0 196 50"><g><g><path fill="#fff" d="M26.457 1.204v28.507h-1.204L4.737 7.066v21.44H7.91c.241 0 .361.281.361.603 0 .32-.12.602-.36.602H.36c-.24 0-.361-.281-.361-.602 0-.322.12-.603.361-.603h3.172V1.204H.361C.121 1.204 0 .924 0 .602 0 .281.12 0 .361 0h8.873l16.019 17.666V1.204H22.12c-.24 0-.361-.28-.361-.602 0-.28.12-.602.361-.602h7.548c.24 0 .361.281.361.602 0 .321-.12.602-.361.602zm34.848 28.507H35.21c-.24 0-.361-.281-.361-.602 0-.322.12-.603.361-.603h3.011V1.204h-3.01c-.242 0-.362-.28-.362-.602 0-.321.12-.602.361-.602h24.37c.12 0 .441.482.441.642 0 .763.201 5.581.322 7.268l.04.883c0 .12-.402.2-.522.2-.16 0-.683-.08-.683-.2l-.04-.562c-.28-4.096-3.412-7.027-7.99-7.027H46.25V13.05h4.256c1.204 0 2.328-3.092 2.328-4.377V7.428c0-.08.562-.16.682-.16.161 0 .522.08.522.16v12.406c0 .12-.36.16-.522.16-.12 0-.682-.04-.682-.16V18.63c0-1.285-1.124-4.377-2.328-4.377H46.25v14.253h5.7c4.537 0 8.472-4.296 8.713-6.504l.12-1.084c0-.12.362-.2.522-.2.12 0 .683.08.683.2l-.04.883c-.12 1.687-.241 6.705-.282 7.067-.04.642-.24.843-.36.843zm18.187.401h-1.285L66.163 1.205h-2.007c-.241 0-.362-.282-.362-.603s.12-.602.362-.602h12.847c.24 0 .361.281.361.602 0 .321-.12.602-.361.602h-2.007l7.226 17.867 3.653-10.037-3.332-7.83h-1.606c-.24 0-.361-.28-.361-.602 0-.32.12-.602.361-.602h12.928c.24 0 .361.281.361.602 0 .321-.12.603-.361.603h-2.53l7.307 17.826 6.464-17.826h-2.61c-.24 0-.361-.282-.361-.603s.121-.602.361-.602h7.147c.241 0 .361.281.361.602 0 .321-.12.602-.361.602h-3.212L95.912 30.113h-1.244l-8.11-19.432zM152.4 0h11.281c.241 0 .362.281.362.602 0 .321-.121.602-.362.602h-3.011v27.302h3.011c.241 0 .362.281.362.603 0 .32-.121.602-.362.602H149.63c-.241 0-.362-.241-.362-.602 0-.322.121-.603.362-.603h3.011V2.971l-8.953 26.7c0 .12-.642.2-.723.2-.201 0-.763-.08-.763-.2L133.25 2.81v25.695h3.171c.241 0 .361.282.361.603 0 .32-.12.602-.361.602h-7.347c-.241 0-.361-.241-.361-.602 0-.321.12-.603.361-.603h2.971V1.205h-2.971c-.241 0-.361-.241-.361-.603 0-.32.12-.602.361-.602h11.723l5.781 17.425zm42.917 29.71h-26.095c-.241 0-.362-.28-.362-.601 0-.322.121-.603.362-.603h3.011V1.204h-3.011c-.241 0-.362-.28-.362-.602 0-.321.121-.602.362-.602h24.369c.121 0 .442.482.442.642 0 .763.201 5.581.321 7.268l.04.883c0 .12-.401.2-.522.2-.16 0-.682-.08-.682-.2l-.04-.562c-.282-4.096-3.413-7.027-7.99-7.027h-4.898V13.05h4.256c1.204 0 2.328-3.092 2.328-4.377V7.428c0-.08.562-.16.683-.16.16 0 .522.08.522.16v12.406c0 .12-.362.16-.522.16-.121 0-.683-.04-.683-.16V18.63c0-1.285-1.124-4.377-2.328-4.377h-4.256v14.253h5.701c4.537 0 8.471-4.296 8.712-6.504l.121-1.084c0-.12.361-.2.521-.2.121 0 .683.08.683.2l-.04.883c-.121 1.687-.241 6.705-.281 7.067-.04.642-.241.843-.362.843z"/></g><g><path fill="#fff" d="M19 47.775l3.085-6.708h.473l3.085 6.708h-.54l-.842-1.865h-3.908l-.842 1.865zm5.053-2.312l-1.74-3.854-1.752 3.854zm2.99-4.349h4.136v.457h-3.643v6.204h-.492zm5.584 0h4.712v.457h-4.22v2.617h3.794v.456H33.12v2.674h4.268v.457h-4.76zm6.34 0h.492v3.083h4.24v-3.083h.491v6.661h-.492v-3.121H39.46v3.121h-.492zm9.028 6.661v-6.204h-2.31v-.457h5.11v.457h-2.308v6.204zm4.002-3.33c0-1.884 1.4-3.445 3.312-3.445 1.183 0 1.865.466 2.546 1.094l-.322.333c-.577-.561-1.24-.98-2.233-.98-1.59 0-2.792 1.304-2.792 2.998 0 1.684 1.221 2.997 2.801 2.997.956 0 1.61-.371 2.281-1.037l.331.323c-.7.695-1.457 1.161-2.63 1.161-1.893 0-3.294-1.513-3.294-3.444zm9.113 3.33v-6.204h-2.309v-.457h5.11v.457h-2.309v6.204zm4.296 0v-6.66h2.735c1.296 0 2.148.646 2.148 1.655 0 .904-.587 1.36-1.126 1.58.795.209 1.495.666 1.495 1.608 0 1.113-.946 1.817-2.375 1.817zm.492-.457h2.404c1.135 0 1.855-.523 1.855-1.38 0-.818-.71-1.294-2.016-1.294h-2.243zm0-3.13h2.186c.994 0 1.704-.486 1.704-1.39 0-.732-.596-1.227-1.656-1.227h-2.234zm6.047.257c0-1.818 1.335-3.445 3.34-3.445 2.007 0 3.322 1.608 3.322 3.445 0 1.817-1.334 3.444-3.34 3.444s-3.322-1.608-3.322-3.444zm6.151 0c0-1.647-1.192-2.998-2.83-2.998-1.636 0-2.81 1.332-2.81 2.998 0 1.646 1.192 2.997 2.83 2.997 1.637 0 2.81-1.332 2.81-2.997zm5.025-3.33h.492v5.946l4.306-5.947h.482v6.661h-.492v-5.947l-4.296 5.947h-.492zm7.249 6.66v-6.66h.463l2.66 3.939 2.659-3.94h.463v6.661h-.492V41.99l-2.621 3.834h-.038l-2.621-3.834v5.785zm8.213-6.66h.493v5.946l4.305-5.947h.483v6.661h-.492v-5.947l-4.296 5.947h-.492zm6.36 6.203h.71c.68-.96 1.06-2.721 1.06-4.796v-1.408h4.059v6.204h.899l-.095 1.98h-.416v-1.523h-5.706l-.095 1.522h-.416zm1.277 0h4.06v-5.747h-3.085v1.313c0 1.78-.36 3.53-.975 4.434zm5.952.457l2.792-3.797-2.602-2.864h.624l3.795 4.244v-4.244h.492v4.244l3.794-4.244h.625l-2.602 2.864 2.791 3.797h-.615l-2.517-3.426-1.476 1.628v1.798h-.492v-1.798l-1.486-1.628-2.508 3.426zm13.428-6.708h.473l3.085 6.708h-.539l-.842-1.865h-3.909l-.842 1.865h-.511zm-1.523 4.396h3.492l-1.742-3.854zm9.321-4.349h.492v5.947l4.305-5.947h.483v6.661h-.492v-5.947l-4.296 5.947h-.492zm9.794 3.33c0-1.883 1.4-3.444 3.312-3.444 1.183 0 1.864.466 2.546 1.094l-.322.333c-.577-.561-1.24-.98-2.233-.98-1.59 0-2.792 1.304-2.792 2.998 0 1.684 1.221 2.997 2.801 2.997.956 0 1.609-.371 2.281-1.037l.331.323c-.7.695-1.457 1.161-2.631 1.161-1.893 0-3.293-1.513-3.293-3.444zm9.113 3.331v-6.204h-2.309v-.457h5.11v.457h-2.309v6.204zm4.296-6.66h.492v5.946l4.306-5.947h.482v6.661h-.492v-5.947l-4.296 5.947h-.492zm6.264 6.565l.152-.41c.113.058.388.115.634.115.511 0 1.457-.324 1.457-4.996v-1.275h4.06v6.661h-.492v-6.204h-3.095v.837c0 4.825-.965 5.434-1.921 5.434-.246 0-.615-.086-.795-.162zm7.741.095l2.11-2.75c-1.116-.152-1.864-.837-1.864-1.97 0-1.094.899-1.94 2.366-1.94H176v6.66h-.492v-2.664h-2.243l-2.034 2.664zm4.902-3.112v-3.092h-2.262c-1.201 0-1.902.609-1.902 1.522 0 .961.824 1.57 1.931 1.57z"/></g></g></svg>