<svg width="11" height="11" viewBox="0 0 11 11" fill="none" xmlns="http://www.w3.org/2000/svg">
<path d="M5.94475 8.43375L3.79199 10.5801C3.72756 10.6187 3.64377 10.7154 3.46973 10.6638C3.37951 10.6316 3.26992 10.5285 3.25061 10.4125V10.406L2.63184 6.70642L3.13459 6.32617C3.19969 6.36435 4.442 7.09282 4.36562 7.04805L5.94472 7.97617C6.06721 8.10506 6.06721 8.30486 5.94475 8.43375Z" fill="#771CC7"/>
<path d="M10.9937 0.708178L9.03848 10.4189C9.01914 10.5221 8.9418 10.6123 8.83867 10.651C8.8 10.6703 8.76133 10.6768 8.72266 10.6768C8.6582 10.6768 8.59375 10.6574 8.53574 10.6187C8.4709 10.5724 3.72193 7.1803 4.02402 7.39609C1.14855 5.97168 2.64844 6.72034 0.180469 5.48828C0.0644531 5.43027 0 5.31426 0 5.19179C0.00644531 5.06289 0.0773437 4.95332 0.193359 4.90176L10.549 0.34724C10.6586 0.302123 10.7875 0.315014 10.8777 0.392357C10.8906 0.405248 10.9099 0.424584 10.9228 0.437475C10.9873 0.514818 11.0131 0.611498 10.9937 0.708178Z" fill="#9239DF"/>
<path d="M10.9228 0.4375L4.36562 7.04807L4.02404 7.3961L3.46973 10.6639C3.37951 10.6316 3.26992 10.5285 3.25061 10.4125V10.4061L2.63184 6.70645L3.13459 6.32619L10.9228 0.4375Z" fill="#AB5AF1"/>
</svg>
